<svg version="1.1" xmlns="http://www.w3.org/2000/svg" viewBox="0 0 263 213.5" width="263" height="213.5">
  <!-- svg-source:excalidraw -->
  
  <defs>
    <style class="style-fonts">
      @font-face {
        font-family: "Virgil";
        src: url("https://excalidraw.com/Virgil.woff2");
      }
      @font-face {
        font-family: "Cascadia";
        src: url("https://excalidraw.com/Cascadia.woff2");
      }
    </style>
  </defs>
  <rect x="0" y="0" width="263" height="213.5" fill="#ffffff"></rect><g stroke-linecap="round" transform="translate(10 10) rotate(0 27 29.5)"><path d="M1.24 2 C19.33 1.35, 40.31 1.6, 54.65 -0.36 M-0.11 0.35 C21.05 -0.47, 41.6 0.07, 54.59 0.47 M53.7 1.96 C55.48 17.29, 54.8 32.62, 53.83 58.24 M54.92 -0.13 C53.92 15.27, 54.71 31.59, 54.74 58.3 M55.63 57.55 C41.12 57.02, 28.33 60.64, 1.46 59.56 M54.11 58.42 C35.59 59.64, 17.73 58.79, 0.41 59.26 M0.09 59.27 C1.79 40.25, -0.81 21.3, 0.22 0.48 M0.03 58.14 C0.13 44.25, 0.05 29.59, 0.35 0.32" stroke="#000000" stroke-width="1" fill="none"></path></g><g transform="translate(28.5 27) rotate(0 8.5 12.5)"><text x="8.5" y="18" font-family="Virgil, Segoe UI Emoji" font-size="20px" fill="#000000" text-anchor="middle" style="white-space: pre;" direction="ltr">M</text></g><g stroke-linecap="round" transform="translate(199 11.5) rotate(0 27 29.5)"><path d="M-0.55 1.39 C14.13 -0.45, 33.91 0.59, 55.46 -0.34 M-0.36 -0.3 C13.32 -0.34, 26.98 0.63, 53.75 0.01 M53.75 -1.79 C52.27 16.25, 54.19 28.97, 55.44 60.3 M53.29 -0.29 C54.36 16.19, 53.98 33.58, 54.74 59.05 M52.66 58.66 C38.74 59.52, 27.23 59.63, -1.75 60.4 M53.72 59.56 C42.5 58.65, 31.28 59.27, 0.24 59.67 M-1.52 59.97 C1.57 41.98, 0.12 24.23, -0.18 -0.41 M0.88 58.04 C-0.32 38.16, 0.28 16.72, 0.38 -0.54" stroke="#000000" stroke-width="1" fill="none"></path></g><g transform="translate(220 28.5) rotate(0 6 12.5)"><text x="6" y="18" font-family="Virgil, Segoe UI Emoji" font-size="20px" fill="#000000" text-anchor="middle" style="white-space: pre;" direction="ltr">V</text></g><g stroke-linecap="round" transform="translate(104 144.5) rotate(0 27 29.5)"><path d="M-1.67 -0.37 C16.92 -0.93, 36.85 -0.01, 53.81 1.29 M-0.21 -0.05 C18.8 -1.12, 38.48 0.41, 53.72 0.05 M55.01 1.71 C52.53 13.94, 52.02 24.75, 53.66 60.57 M54.35 -0.98 C53.99 11.28, 53.61 24.71, 53.67 59.64 M52.1 59.48 C32.97 57.98, 13.99 60.65, -1.11 60.63 M54.1 58.58 C43.54 59.82, 30.92 59.77, -0.82 58.84 M0.66 57.45 C1.83 39.55, -0.97 16.27, -1.81 0.36 M0.6 59.79 C0.38 42.01, 0.32 25.66, -0.01 -0.39" stroke="#000000" stroke-width="1" fill="none"></path></g><g transform="translate(123.5 161.5) rotate(0 7.5 12.5)"><text x="7.5" y="18" font-family="Virgil, Segoe UI Emoji" font-size="20px" fill="#000000" text-anchor="middle" style="white-space: pre;" direction="ltr">P</text></g><g stroke-linecap="round"><g transform="translate(102 144) rotate(0 -29.011198013341073 -37.59087383542675)"><path d="M-1.05 -1.09 C-10.78 -13.68, -48.39 -63.55, -57.79 -76.14 M0.6 0.96 C-9.33 -11.4, -48.88 -61.91, -58.62 -74.68" stroke="#000000" stroke-width="1" fill="none"></path></g><g transform="translate(102 144) rotate(0 -29.011198013341073 -37.59087383542675)"><path d="M-35.05 -58.32 C-42.34 -63.53, -52.07 -68.96, -57.05 -73.32 M-33.26 -59.07 C-40.93 -62.36, -48.86 -67.95, -58.88 -74.6" stroke="#000000" stroke-width="1" fill="none"></path></g><g transform="translate(102 144) rotate(0 -29.011198013341073 -37.59087383542675)"><path d="M-51.27 -45.75 C-52.79 -55.24, -56.82 -65.09, -57.05 -73.32 M-49.48 -46.5 C-52.34 -53.69, -55.4 -63.05, -58.88 -74.6" stroke="#000000" stroke-width="1" fill="none"></path></g></g><g stroke-linecap="round"><g transform="translate(159 144) rotate(0 25.288444813159288 -36.833370947837835)"><path d="M-1.17 0.2 C7.17 -12.31, 40.82 -61.42, 49.37 -73.87 M0.42 -0.74 C9.21 -12.52, 43.58 -60.14, 51.75 -72.26" stroke="#000000" stroke-width="1" fill="none"></path></g><g transform="translate(159 144) rotate(0 25.288444813159288 -36.833370947837835)"><path d="M44.29 -44.35 C45.79 -50.06, 46.61 -58.17, 53.74 -72.51 M43.19 -42.41 C47.44 -53.11, 49.51 -64.3, 51.47 -71.68" stroke="#000000" stroke-width="1" fill="none"></path></g><g transform="translate(159 144) rotate(0 25.288444813159288 -36.833370947837835)"><path d="M27.49 -56.14 C33.2 -58.81, 38.13 -64.04, 53.74 -72.51 M26.39 -54.2 C36.6 -60.74, 44.61 -67.76, 51.47 -71.68" stroke="#000000" stroke-width="1" fill="none"></path></g></g></svg>