<svg version="1.1" xmlns="http://www.w3.org/2000/svg" viewBox="0 0 375 79" width="375" height="79">
  <!-- svg-source:excalidraw -->
  
  <defs>
    <style class="style-fonts">
      @font-face {
        font-family: "Virgil";
        src: url("https://excalidraw.com/Virgil.woff2");
      }
      @font-face {
        font-family: "Cascadia";
        src: url("https://excalidraw.com/Cascadia.woff2");
      }
    </style>
  </defs>
  <rect x="0" y="0" width="375" height="79" fill="#ffffff"></rect><g stroke-linecap="round" transform="translate(10 10) rotate(0 27 29.5)"><path d="M1.24 2 C19.33 1.35, 40.31 1.6, 54.65 -0.36 M-0.11 0.35 C21.05 -0.47, 41.6 0.07, 54.59 0.47 M53.7 1.96 C55.48 17.29, 54.8 32.62, 53.83 58.24 M54.92 -0.13 C53.92 15.27, 54.71 31.59, 54.74 58.3 M55.63 57.55 C41.12 57.02, 28.33 60.64, 1.46 59.56 M54.11 58.42 C35.59 59.64, 17.73 58.79, 0.41 59.26 M0.09 59.27 C1.79 40.25, -0.81 21.3, 0.22 0.48 M0.03 58.14 C0.13 44.25, 0.05 29.59, 0.35 0.32" stroke="#000000" stroke-width="1" fill="none"></path></g><g transform="translate(28.5 27) rotate(0 8.5 12.5)"><text x="8.5" y="18" font-family="Virgil, Segoe UI Emoji" font-size="20px" fill="#000000" text-anchor="middle" style="white-space: pre;" direction="ltr">M</text></g><g stroke-linecap="round" transform="translate(311 10) rotate(0 27 29.5)"><path d="M-0.55 1.39 C14.13 -0.45, 33.91 0.59, 55.46 -0.34 M-0.36 -0.3 C13.32 -0.34, 26.98 0.63, 53.75 0.01 M53.75 -1.79 C52.27 16.25, 54.19 28.97, 55.44 60.3 M53.29 -0.29 C54.36 16.19, 53.98 33.58, 54.74 59.05 M52.66 58.66 C38.74 59.52, 27.23 59.63, -1.75 60.4 M53.72 59.56 C42.5 58.65, 31.28 59.27, 0.24 59.67 M-1.52 59.97 C1.57 41.98, 0.12 24.23, -0.18 -0.41 M0.88 58.04 C-0.32 38.16, 0.28 16.72, 0.38 -0.54" stroke="#000000" stroke-width="1" fill="none"></path></g><g transform="translate(332 27) rotate(0 6 12.5)"><text x="6" y="18" font-family="Virgil, Segoe UI Emoji" font-size="20px" fill="#000000" text-anchor="middle" style="white-space: pre;" direction="ltr">V</text></g><g stroke-linecap="round" transform="translate(163 10) rotate(0 27 29.5)"><path d="M-1.67 -0.37 C16.92 -0.93, 36.85 -0.01, 53.81 1.29 M-0.21 -0.05 C18.8 -1.12, 38.48 0.41, 53.72 0.05 M55.01 1.71 C52.53 13.94, 52.02 24.75, 53.66 60.57 M54.35 -0.98 C53.99 11.28, 53.61 24.71, 53.67 59.64 M52.1 59.48 C32.97 57.98, 13.99 60.65, -1.11 60.63 M54.1 58.58 C43.54 59.82, 30.92 59.77, -0.82 58.84 M0.66 57.45 C1.83 39.55, -0.97 16.27, -1.81 0.36 M0.6 59.79 C0.38 42.01, 0.32 25.66, -0.01 -0.39" stroke="#000000" stroke-width="1" fill="none"></path></g><g transform="translate(176 27) rotate(0 14 12.5)"><text x="14" y="18" font-family="Virgil, Segoe UI Emoji" font-size="20px" fill="#000000" text-anchor="middle" style="white-space: pre;" direction="ltr">VM</text></g><g stroke-linecap="round"><g transform="translate(161 40.63598663613561) rotate(0 -47.63281316212374 -1.1359866361356126)"><path d="M-0.98 -0.09 C-16.78 -0.32, -79.5 -0.33, -95.36 -0.52 M0.71 -1.18 C-15.15 -1.81, -79.69 -2.36, -95.97 -2.13" stroke="#000000" stroke-width="1" fill="none"></path></g><g transform="translate(161 40.63598663613561) rotate(0 -47.63281316212374 -1.1359866361356126)"><path d="M-67.94 -11.35 C-73.25 -10.31, -81.6 -5.92, -94.65 -1.95 M-67.49 -11.85 C-77.62 -9.29, -86.6 -5.58, -95.03 -2.06" stroke="#000000" stroke-width="1" fill="none"></path></g><g transform="translate(161 40.63598663613561) rotate(0 -47.63281316212374 -1.1359866361356126)"><path d="M-67.92 9.18 C-73.39 4.99, -81.75 4.16, -94.65 -1.95 M-67.47 8.67 C-77.63 4.41, -86.61 1.3, -95.03 -2.06" stroke="#000000" stroke-width="1" fill="none"></path></g></g><g stroke-linecap="round"><g transform="translate(310 39) rotate(0 -46.03457663867158 -0.3276234226194106)"><path d="M0.66 -0.47 C-14.61 -0.62, -76.6 -0.31, -91.86 0.07 M-0.45 -1.77 C-15.85 -1.88, -77.62 0.84, -92.73 1.12" stroke="#000000" stroke-width="1" fill="none"></path></g><g transform="translate(310 39) rotate(0 -46.03457663867158 -0.3276234226194106)"><path d="M-65.68 -9.81 C-74.21 -4.94, -79.17 -1.63, -92.17 1.35 M-65.87 -10.93 C-71.7 -6.09, -80.53 -3.7, -93.45 0.57" stroke="#000000" stroke-width="1" fill="none"></path></g><g transform="translate(310 39) rotate(0 -46.03457663867158 -0.3276234226194106)"><path d="M-65.01 10.7 C-73.9 9.79, -79.04 7.31, -92.17 1.35 M-65.21 9.58 C-71.17 8.88, -80.18 5.73, -93.45 0.57" stroke="#000000" stroke-width="1" fill="none"></path></g></g></svg>